<svg width="46" height="25" viewBox="0 0 46 25" fill="none" xmlns="http://www.w3.org/2000/svg">
<path d="M3.8063 24.4734C3.13052 24.6145 2.4683 24.1811 2.32718 23.5053L0.0274808 12.4928C-0.11364 11.8171 0.319786 11.1548 0.995564 11.0137C1.67134 10.8726 2.33357 11.306 2.47469 11.9818L4.51886 21.7706L14.3077 19.7265C14.9835 19.5853 15.6457 20.0188 15.7868 20.6945C15.9279 21.3703 15.4945 22.0325 14.8187 22.1737L3.8063 24.4734ZM44.8966 1.77449C45.56 1.96549 45.943 2.65813 45.752 3.32154C45.561 3.98494 44.8683 4.3679 44.2049 4.1769L44.5508 2.97569L44.8966 1.77449ZM3.55078 23.2498L2.50488 22.5652C6.33861 16.7077 10.7072 9.67746 17.2158 5.05812C23.8319 0.362505 32.5454 -1.78155 44.8966 1.77449L44.5508 2.97569L44.2049 4.1769C32.511 0.810091 24.5984 2.88416 18.6628 7.09684C12.6196 11.3858 8.51076 17.954 4.59668 23.9343L3.55078 23.2498Z" fill="#6448EF"/>
</svg>
